<svg xmlns="http://www.w3.org/2000/svg" xmlns:xlink="http://www.w3.org/1999/xlink" width="500" zoomAndPan="magnify" viewBox="0 0 375 374.999991" height="500" preserveAspectRatio="xMidYMid meet" version="1.0"><defs><g/></defs><g fill="#000000" fill-opacity="1"><g transform="translate(158.431386, 293.329971)"><g><path d="M 66.183594 0 L 132.011719 0 L 132.011719 -4.929688 C 120.394531 -8.800781 117.929688 -19.363281 117.929688 -44.707031 L 117.929688 -240.085938 L 128.140625 -240.085938 C 159.46875 -240.085938 175.3125 -231.285156 188.335938 -203.121094 L 192.5625 -203.828125 L 190.449219 -246.421875 L 7.039062 -246.421875 L 4.929688 -203.828125 L 9.152344 -203.121094 C 22.179688 -231.285156 38.019531 -240.085938 69.351562 -240.085938 L 80.261719 -240.085938 L 80.261719 -44.707031 C 80.261719 -19.363281 77.800781 -8.800781 66.183594 -4.929688 Z M 66.183594 0 "/></g></g></g><g fill="#ed840c" fill-opacity="1"><g transform="translate(7.518209, 281.427488)"><g><path d="M 222.578125 -227.875 C 226.585938 -227.875 229.953125 -227.710938 232.671875 -227.390625 L 232.671875 -224.984375 C 222.742188 -224.503906 214.171875 -222.101562 206.953125 -217.78125 C 198.785156 -212.8125 192.976562 -208.203125 189.53125 -203.953125 C 186.082031 -199.710938 183.359375 -196.269531 181.359375 -193.625 C 179.359375 -190.976562 177.394531 -187.8125 175.46875 -184.125 C 172.425781 -178.519531 169.617188 -172.992188 167.046875 -167.546875 L 102.640625 -26.6875 C 95.265625 -10.820312 91.335938 -0.320312 90.859375 4.8125 L 88.6875 4.8125 L 15.859375 -152.15625 C 13.453125 -156.644531 10.40625 -160.050781 6.71875 -162.375 C 3.039062 -164.695312 -0.722656 -165.859375 -4.578125 -165.859375 L -6.5 -165.859375 L -6.5 -168.265625 L 69.9375 -168.265625 L 69.9375 -165.859375 L 68.015625 -165.859375 C 64.492188 -165.859375 61.890625 -164.773438 60.203125 -162.609375 C 58.523438 -160.453125 57.6875 -158.410156 57.6875 -156.484375 C 57.6875 -154.554688 58.003906 -152.632812 58.640625 -150.71875 L 99.515625 -51.4375 L 149.265625 -167.546875 C 156.796875 -185.328125 165.609375 -198.707031 175.703125 -207.6875 C 190.609375 -221.144531 206.234375 -227.875 222.578125 -227.875 Z M 222.578125 -227.875 "/></g></g></g><g fill="#000000" fill-opacity="1"><g transform="translate(110.305139, 278.521121)"><g><path d="M 1.5 0 L 1.5 -15.390625 L 13.609375 -15.390625 L 13.609375 -12.90625 L 4.71875 -12.90625 L 4.71875 -9.03125 L 12.9375 -9.03125 L 12.9375 -6.546875 L 4.71875 -6.546875 L 4.71875 -2.484375 L 14.046875 -2.484375 L 14.046875 0 Z M 1.5 0 "/></g></g></g><g fill="#000000" fill-opacity="1"><g transform="translate(127.848728, 278.521121)"><g><path d="M 1.5 0 L 1.5 -15.390625 L 4.71875 -15.390625 L 4.71875 -2.484375 L 12.984375 -2.484375 L 12.984375 0 Z M 1.5 0 "/></g></g></g><g fill="#000000" fill-opacity="1"><g transform="translate(144.135835, 278.521121)"><g><path d="M 16.46875 -7.765625 C 16.46875 -6.160156 16.148438 -4.75 15.515625 -3.53125 C 14.878906 -2.320312 13.972656 -1.394531 12.796875 -0.75 C 11.617188 -0.101562 10.238281 0.21875 8.65625 0.21875 C 6.238281 0.21875 4.34375 -0.488281 2.96875 -1.90625 C 1.601562 -3.332031 0.921875 -5.285156 0.921875 -7.765625 C 0.921875 -10.234375 1.601562 -12.160156 2.96875 -13.546875 C 4.34375 -14.929688 6.25 -15.625 8.6875 -15.625 C 11.125 -15.625 13.03125 -14.921875 14.40625 -13.515625 C 15.78125 -12.117188 16.46875 -10.203125 16.46875 -7.765625 Z M 13.171875 -7.765625 C 13.171875 -9.429688 12.773438 -10.734375 11.984375 -11.671875 C 11.203125 -12.617188 10.101562 -13.09375 8.6875 -13.09375 C 7.238281 -13.09375 6.117188 -12.625 5.328125 -11.6875 C 4.546875 -10.75 4.15625 -9.441406 4.15625 -7.765625 C 4.15625 -6.078125 4.554688 -4.742188 5.359375 -3.765625 C 6.171875 -2.796875 7.269531 -2.3125 8.65625 -2.3125 C 10.101562 -2.3125 11.21875 -2.785156 12 -3.734375 C 12.78125 -4.679688 13.171875 -6.023438 13.171875 -7.765625 Z M 13.171875 -7.765625 "/></g></g></g><g fill="#000000" fill-opacity="1"><g transform="translate(164.159635, 278.521121)"><g><path d="M 8.6875 -2.3125 C 10.632812 -2.3125 11.984375 -3.289062 12.734375 -5.25 L 15.546875 -4.1875 C 14.941406 -2.695312 14.054688 -1.585938 12.890625 -0.859375 C 11.722656 -0.140625 10.320312 0.21875 8.6875 0.21875 C 6.207031 0.21875 4.289062 -0.476562 2.9375 -1.875 C 1.59375 -3.28125 0.921875 -5.242188 0.921875 -7.765625 C 0.921875 -10.296875 1.570312 -12.238281 2.875 -13.59375 C 4.175781 -14.945312 6.066406 -15.625 8.546875 -15.625 C 10.347656 -15.625 11.816406 -15.257812 12.953125 -14.53125 C 14.085938 -13.8125 14.882812 -12.75 15.34375 -11.34375 L 12.515625 -10.5625 C 12.273438 -11.332031 11.800781 -11.945312 11.09375 -12.40625 C 10.394531 -12.863281 9.566406 -13.09375 8.609375 -13.09375 C 7.148438 -13.09375 6.039062 -12.640625 5.28125 -11.734375 C 4.53125 -10.828125 4.15625 -9.503906 4.15625 -7.765625 C 4.15625 -5.992188 4.539062 -4.640625 5.3125 -3.703125 C 6.09375 -2.773438 7.21875 -2.3125 8.6875 -2.3125 Z M 8.6875 -2.3125 "/></g></g></g><g fill="#000000" fill-opacity="1"><g transform="translate(182.937867, 278.521121)"><g><path d="M 1.5 0 L 1.5 -15.390625 L 4.71875 -15.390625 L 4.71875 0 Z M 1.5 0 "/></g></g></g><g fill="#000000" fill-opacity="1"><g transform="translate(191.773443, 278.521121)"><g><path d="M 8.4375 -12.90625 L 8.4375 0 L 5.21875 0 L 5.21875 -12.90625 L 0.25 -12.90625 L 0.25 -15.390625 L 13.421875 -15.390625 L 13.421875 -12.90625 Z M 8.4375 -12.90625 "/></g></g></g><g fill="#000000" fill-opacity="1"><g transform="translate(208.060549, 278.521121)"><g><path d="M 9.078125 -6.3125 L 9.078125 0 L 5.859375 0 L 5.859375 -6.3125 L 0.375 -15.390625 L 3.765625 -15.390625 L 7.453125 -8.875 L 11.1875 -15.390625 L 14.5625 -15.390625 Z M 9.078125 -6.3125 "/></g></g></g><g fill="#ed840c" fill-opacity="1"><g transform="translate(282.996751, 278.521121)"><g><path d="M 1.5 0 L 1.5 -15.390625 L 13.609375 -15.390625 L 13.609375 -12.90625 L 4.71875 -12.90625 L 4.71875 -9.03125 L 12.9375 -9.03125 L 12.9375 -6.546875 L 4.71875 -6.546875 L 4.71875 -2.484375 L 14.046875 -2.484375 L 14.046875 0 Z M 1.5 0 "/></g></g></g><g fill="#ed840c" fill-opacity="1"><g transform="translate(300.540339, 278.521121)"><g><path d="M 8.6875 -2.3125 C 10.632812 -2.3125 11.984375 -3.289062 12.734375 -5.25 L 15.546875 -4.1875 C 14.941406 -2.695312 14.054688 -1.585938 12.890625 -0.859375 C 11.722656 -0.140625 10.320312 0.21875 8.6875 0.21875 C 6.207031 0.21875 4.289062 -0.476562 2.9375 -1.875 C 1.59375 -3.28125 0.921875 -5.242188 0.921875 -7.765625 C 0.921875 -10.296875 1.570312 -12.238281 2.875 -13.59375 C 4.175781 -14.945312 6.066406 -15.625 8.546875 -15.625 C 10.347656 -15.625 11.816406 -15.257812 12.953125 -14.53125 C 14.085938 -13.8125 14.882812 -12.75 15.34375 -11.34375 L 12.515625 -10.5625 C 12.273438 -11.332031 11.800781 -11.945312 11.09375 -12.40625 C 10.394531 -12.863281 9.566406 -13.09375 8.609375 -13.09375 C 7.148438 -13.09375 6.039062 -12.640625 5.28125 -11.734375 C 4.53125 -10.828125 4.15625 -9.503906 4.15625 -7.765625 C 4.15625 -5.992188 4.539062 -4.640625 5.3125 -3.703125 C 6.09375 -2.773438 7.21875 -2.3125 8.6875 -2.3125 Z M 8.6875 -2.3125 "/></g></g></g><g fill="#ed840c" fill-opacity="1"><g transform="translate(319.318574, 278.521121)"><g><path d="M 11.421875 0 L 11.421875 -6.59375 L 4.71875 -6.59375 L 4.71875 0 L 1.5 0 L 1.5 -15.390625 L 4.71875 -15.390625 L 4.71875 -9.265625 L 11.421875 -9.265625 L 11.421875 -15.390625 L 14.65625 -15.390625 L 14.65625 0 Z M 11.421875 0 "/></g></g></g><g fill="#ed840c" fill-opacity="1"><g transform="translate(338.09681, 278.521121)"><g><path d="M 1.515625 0 L 1.515625 -3.328125 L 4.671875 -3.328125 L 4.671875 0 Z M 1.515625 0 "/></g></g></g><g fill="#ed840c" fill-opacity="1"><g transform="translate(346.932387, 278.521121)"><g><path d="M 1.5 0 L 1.5 -15.390625 L 4.71875 -15.390625 L 4.71875 0 Z M 1.5 0 "/></g></g></g><g fill="#ed840c" fill-opacity="1"><g transform="translate(355.767963, 278.521121)"><g><path d="M 10.875 0 L 4.15625 -11.859375 C 4.289062 -10.703125 4.359375 -9.773438 4.359375 -9.078125 L 4.359375 0 L 1.5 0 L 1.5 -15.390625 L 5.171875 -15.390625 L 11.984375 -3.4375 C 11.847656 -4.539062 11.78125 -5.546875 11.78125 -6.453125 L 11.78125 -15.390625 L 14.65625 -15.390625 L 14.65625 0 Z M 10.875 0 "/></g></g></g><g fill="#000000" fill-opacity="1"><g transform="translate(12.036906, 311.782688)"><g><path d="M 1.1875 0 L 1.1875 -12.21875 L 10.796875 -12.21875 L 10.796875 -10.25 L 3.75 -10.25 L 3.75 -7.171875 L 10.265625 -7.171875 L 10.265625 -5.203125 L 3.75 -5.203125 L 3.75 -1.984375 L 11.15625 -1.984375 L 11.15625 0 Z M 1.1875 0 "/></g></g></g><g fill="#000000" fill-opacity="1"><g transform="translate(25.968105, 311.782688)"><g><path d="M 11.34375 0 L 11.34375 -7.40625 C 11.34375 -7.570312 11.34375 -7.738281 11.34375 -7.90625 C 11.34375 -8.070312 11.367188 -8.796875 11.421875 -10.078125 C 11.015625 -8.515625 10.710938 -7.425781 10.515625 -6.8125 L 8.3125 0 L 6.484375 0 L 4.28125 -6.8125 L 3.359375 -10.078125 C 3.429688 -8.734375 3.46875 -7.84375 3.46875 -7.40625 L 3.46875 0 L 1.1875 0 L 1.1875 -12.21875 L 4.609375 -12.21875 L 6.796875 -5.390625 L 6.984375 -4.734375 L 7.40625 -3.09375 L 7.953125 -5.046875 L 10.203125 -12.21875 L 13.609375 -12.21875 L 13.609375 0 Z M 11.34375 0 "/></g></g></g><g fill="#000000" fill-opacity="1"><g transform="translate(42.849222, 311.782688)"><g><path d="M 11.25 -8.359375 C 11.25 -7.566406 11.066406 -6.859375 10.703125 -6.234375 C 10.347656 -5.617188 9.832031 -5.140625 9.15625 -4.796875 C 8.488281 -4.460938 7.695312 -4.296875 6.78125 -4.296875 L 3.75 -4.296875 L 3.75 0 L 1.1875 0 L 1.1875 -12.21875 L 6.671875 -12.21875 C 8.140625 -12.21875 9.269531 -11.878906 10.0625 -11.203125 C 10.851562 -10.535156 11.25 -9.585938 11.25 -8.359375 Z M 8.671875 -8.3125 C 8.671875 -9.59375 7.910156 -10.234375 6.390625 -10.234375 L 3.75 -10.234375 L 3.75 -6.265625 L 6.46875 -6.265625 C 7.164062 -6.265625 7.707031 -6.441406 8.09375 -6.796875 C 8.476562 -7.148438 8.671875 -7.65625 8.671875 -8.3125 Z M 8.671875 -8.3125 "/></g></g></g><g fill="#000000" fill-opacity="1"><g transform="translate(56.780423, 311.782688)"><g><path d="M 13.078125 -6.171875 C 13.078125 -4.898438 12.820312 -3.78125 12.3125 -2.8125 C 11.8125 -1.84375 11.09375 -1.101562 10.15625 -0.59375 C 9.21875 -0.0820312 8.125 0.171875 6.875 0.171875 C 4.957031 0.171875 3.453125 -0.390625 2.359375 -1.515625 C 1.273438 -2.648438 0.734375 -4.203125 0.734375 -6.171875 C 0.734375 -8.128906 1.273438 -9.65625 2.359375 -10.75 C 3.441406 -11.851562 4.953125 -12.40625 6.890625 -12.40625 C 8.828125 -12.40625 10.34375 -11.847656 11.4375 -10.734375 C 12.53125 -9.628906 13.078125 -8.109375 13.078125 -6.171875 Z M 10.46875 -6.171875 C 10.46875 -7.484375 10.15625 -8.515625 9.53125 -9.265625 C 8.90625 -10.015625 8.023438 -10.390625 6.890625 -10.390625 C 5.742188 -10.390625 4.859375 -10.015625 4.234375 -9.265625 C 3.617188 -8.523438 3.3125 -7.492188 3.3125 -6.171875 C 3.3125 -4.828125 3.628906 -3.769531 4.265625 -3 C 4.898438 -2.226562 5.769531 -1.84375 6.875 -1.84375 C 8.019531 -1.84375 8.90625 -2.21875 9.53125 -2.96875 C 10.15625 -3.71875 10.46875 -4.785156 10.46875 -6.171875 Z M 10.46875 -6.171875 "/></g></g></g><g fill="#000000" fill-opacity="1"><g transform="translate(72.681131, 311.782688)"><g><path d="M 13.59375 0 L 10.5625 0 L 8.90625 -7.0625 C 8.695312 -7.894531 8.523438 -8.769531 8.390625 -9.6875 C 8.253906 -8.925781 8.140625 -8.347656 8.046875 -7.953125 C 7.960938 -7.554688 7.347656 -4.90625 6.203125 0 L 3.171875 0 L 0.015625 -12.21875 L 2.609375 -12.21875 L 4.375 -4.328125 L 4.78125 -2.421875 C 4.9375 -3.222656 5.09375 -3.988281 5.25 -4.71875 C 5.40625 -5.457031 5.984375 -7.957031 6.984375 -12.21875 L 9.84375 -12.21875 L 11.390625 -5.71875 C 11.515625 -5.226562 11.71875 -4.128906 12 -2.421875 L 12.21875 -3.421875 L 12.6875 -5.421875 L 14.15625 -12.21875 L 16.75 -12.21875 Z M 13.59375 0 "/></g></g></g><g fill="#000000" fill-opacity="1"><g transform="translate(91.531758, 311.782688)"><g><path d="M 1.1875 0 L 1.1875 -12.21875 L 10.796875 -12.21875 L 10.796875 -10.25 L 3.75 -10.25 L 3.75 -7.171875 L 10.265625 -7.171875 L 10.265625 -5.203125 L 3.75 -5.203125 L 3.75 -1.984375 L 11.15625 -1.984375 L 11.15625 0 Z M 1.1875 0 "/></g></g></g><g fill="#000000" fill-opacity="1"><g transform="translate(105.462956, 311.782688)"><g><path d="M 9.578125 0 L 6.75 -4.640625 L 3.75 -4.640625 L 3.75 0 L 1.1875 0 L 1.1875 -12.21875 L 7.296875 -12.21875 C 8.753906 -12.21875 9.878906 -11.90625 10.671875 -11.28125 C 11.460938 -10.65625 11.859375 -9.753906 11.859375 -8.578125 C 11.859375 -7.722656 11.613281 -6.984375 11.125 -6.359375 C 10.644531 -5.742188 9.988281 -5.335938 9.15625 -5.140625 L 12.46875 0 Z M 9.28125 -8.46875 C 9.28125 -9.644531 8.53125 -10.234375 7.03125 -10.234375 L 3.75 -10.234375 L 3.75 -6.625 L 7.09375 -6.625 C 7.8125 -6.625 8.351562 -6.785156 8.71875 -7.109375 C 9.09375 -7.429688 9.28125 -7.882812 9.28125 -8.46875 Z M 9.28125 -8.46875 "/></g></g></g><g fill="#000000" fill-opacity="1"><g transform="translate(120.374574, 311.782688)"><g><path d="M 1.1875 0 L 1.1875 -12.21875 L 3.75 -12.21875 L 3.75 0 Z M 1.1875 0 "/></g></g></g><g fill="#000000" fill-opacity="1"><g transform="translate(127.390828, 311.782688)"><g><path d="M 8.625 0 L 3.3125 -9.40625 C 3.414062 -8.5 3.46875 -7.765625 3.46875 -7.203125 L 3.46875 0 L 1.1875 0 L 1.1875 -12.21875 L 4.109375 -12.21875 L 9.515625 -2.734375 C 9.410156 -3.609375 9.359375 -4.40625 9.359375 -5.125 L 9.359375 -12.21875 L 11.625 -12.21875 L 11.625 0 Z M 8.625 0 "/></g></g></g><g fill="#000000" fill-opacity="1"><g transform="translate(142.302453, 311.782688)"><g><path d="M 6.984375 -1.828125 C 7.648438 -1.828125 8.296875 -1.921875 8.921875 -2.109375 C 9.546875 -2.304688 10.03125 -2.554688 10.375 -2.859375 L 10.375 -4.546875 L 7.390625 -4.546875 L 7.390625 -6.4375 L 12.71875 -6.4375 L 12.71875 -1.953125 C 12.070312 -1.285156 11.226562 -0.765625 10.1875 -0.390625 C 9.144531 -0.015625 8.054688 0.171875 6.921875 0.171875 C 4.929688 0.171875 3.398438 -0.375 2.328125 -1.46875 C 1.265625 -2.570312 0.734375 -4.140625 0.734375 -6.171875 C 0.734375 -8.179688 1.269531 -9.722656 2.34375 -10.796875 C 3.414062 -11.867188 4.960938 -12.40625 6.984375 -12.40625 C 9.847656 -12.40625 11.671875 -11.34375 12.453125 -9.21875 L 10.09375 -8.515625 C 9.84375 -9.128906 9.441406 -9.59375 8.890625 -9.90625 C 8.347656 -10.226562 7.710938 -10.390625 6.984375 -10.390625 C 5.773438 -10.390625 4.859375 -10.023438 4.234375 -9.296875 C 3.617188 -8.566406 3.3125 -7.523438 3.3125 -6.171875 C 3.3125 -4.785156 3.628906 -3.710938 4.265625 -2.953125 C 4.910156 -2.203125 5.816406 -1.828125 6.984375 -1.828125 Z M 6.984375 -1.828125 "/></g></g></g><g fill="#000000" fill-opacity="1"><g transform="translate(158.210684, 311.782688)"><g/></g></g><g fill="#000000" fill-opacity="1"><g transform="translate(165.226934, 311.782688)"><g/></g></g><g fill="#000000" fill-opacity="1"><g transform="translate(172.243575, 311.782688)"><g><path d="M 7.203125 -5.015625 L 7.203125 0 L 4.65625 0 L 4.65625 -5.015625 L 0.296875 -12.21875 L 2.984375 -12.21875 L 5.921875 -7.046875 L 8.890625 -12.21875 L 11.5625 -12.21875 Z M 7.203125 -5.015625 "/></g></g></g><g fill="#000000" fill-opacity="1"><g transform="translate(186.174774, 311.782688)"><g><path d="M 13.078125 -6.171875 C 13.078125 -4.898438 12.820312 -3.78125 12.3125 -2.8125 C 11.8125 -1.84375 11.09375 -1.101562 10.15625 -0.59375 C 9.21875 -0.0820312 8.125 0.171875 6.875 0.171875 C 4.957031 0.171875 3.453125 -0.390625 2.359375 -1.515625 C 1.273438 -2.648438 0.734375 -4.203125 0.734375 -6.171875 C 0.734375 -8.128906 1.273438 -9.65625 2.359375 -10.75 C 3.441406 -11.851562 4.953125 -12.40625 6.890625 -12.40625 C 8.828125 -12.40625 10.34375 -11.847656 11.4375 -10.734375 C 12.53125 -9.628906 13.078125 -8.109375 13.078125 -6.171875 Z M 10.46875 -6.171875 C 10.46875 -7.484375 10.15625 -8.515625 9.53125 -9.265625 C 8.90625 -10.015625 8.023438 -10.390625 6.890625 -10.390625 C 5.742188 -10.390625 4.859375 -10.015625 4.234375 -9.265625 C 3.617188 -8.523438 3.3125 -7.492188 3.3125 -6.171875 C 3.3125 -4.828125 3.628906 -3.769531 4.265625 -3 C 4.898438 -2.226562 5.769531 -1.84375 6.875 -1.84375 C 8.019531 -1.84375 8.90625 -2.21875 9.53125 -2.96875 C 10.15625 -3.71875 10.46875 -4.785156 10.46875 -6.171875 Z M 10.46875 -6.171875 "/></g></g></g><g fill="#000000" fill-opacity="1"><g transform="translate(202.075484, 311.782688)"><g><path d="M 6.265625 0.171875 C 4.585938 0.171875 3.300781 -0.238281 2.40625 -1.0625 C 1.507812 -1.882812 1.0625 -3.054688 1.0625 -4.578125 L 1.0625 -12.21875 L 3.625 -12.21875 L 3.625 -4.78125 C 3.625 -3.8125 3.851562 -3.078125 4.3125 -2.578125 C 4.769531 -2.078125 5.445312 -1.828125 6.34375 -1.828125 C 7.257812 -1.828125 7.960938 -2.085938 8.453125 -2.609375 C 8.941406 -3.140625 9.1875 -3.890625 9.1875 -4.859375 L 9.1875 -12.21875 L 11.75 -12.21875 L 11.75 -4.703125 C 11.75 -3.160156 11.269531 -1.960938 10.3125 -1.109375 C 9.351562 -0.253906 8.003906 0.171875 6.265625 0.171875 Z M 6.265625 0.171875 "/></g></g></g><g fill="#000000" fill-opacity="1"><g transform="translate(216.987106, 311.782688)"><g><path d="M 9.578125 0 L 6.75 -4.640625 L 3.75 -4.640625 L 3.75 0 L 1.1875 0 L 1.1875 -12.21875 L 7.296875 -12.21875 C 8.753906 -12.21875 9.878906 -11.90625 10.671875 -11.28125 C 11.460938 -10.65625 11.859375 -9.753906 11.859375 -8.578125 C 11.859375 -7.722656 11.613281 -6.984375 11.125 -6.359375 C 10.644531 -5.742188 9.988281 -5.335938 9.15625 -5.140625 L 12.46875 0 Z M 9.28125 -8.46875 C 9.28125 -9.644531 8.53125 -10.234375 7.03125 -10.234375 L 3.75 -10.234375 L 3.75 -6.625 L 7.09375 -6.625 C 7.8125 -6.625 8.351562 -6.785156 8.71875 -7.109375 C 9.09375 -7.429688 9.28125 -7.882812 9.28125 -8.46875 Z M 9.28125 -8.46875 "/></g></g></g><g fill="#000000" fill-opacity="1"><g transform="translate(231.898724, 311.782688)"><g/></g></g><g fill="#000000" fill-opacity="1"><g transform="translate(238.914972, 311.782688)"><g><path d="M 6.703125 -10.25 L 6.703125 0 L 4.140625 0 L 4.140625 -10.25 L 0.203125 -10.25 L 0.203125 -12.21875 L 10.65625 -12.21875 L 10.65625 -10.25 Z M 6.703125 -10.25 "/></g></g></g><g fill="#000000" fill-opacity="1"><g transform="translate(251.848409, 311.782688)"><g><path d="M 13.078125 -6.171875 C 13.078125 -4.898438 12.820312 -3.78125 12.3125 -2.8125 C 11.8125 -1.84375 11.09375 -1.101562 10.15625 -0.59375 C 9.21875 -0.0820312 8.125 0.171875 6.875 0.171875 C 4.957031 0.171875 3.453125 -0.390625 2.359375 -1.515625 C 1.273438 -2.648438 0.734375 -4.203125 0.734375 -6.171875 C 0.734375 -8.128906 1.273438 -9.65625 2.359375 -10.75 C 3.441406 -11.851562 4.953125 -12.40625 6.890625 -12.40625 C 8.828125 -12.40625 10.34375 -11.847656 11.4375 -10.734375 C 12.53125 -9.628906 13.078125 -8.109375 13.078125 -6.171875 Z M 10.46875 -6.171875 C 10.46875 -7.484375 10.15625 -8.515625 9.53125 -9.265625 C 8.90625 -10.015625 8.023438 -10.390625 6.890625 -10.390625 C 5.742188 -10.390625 4.859375 -10.015625 4.234375 -9.265625 C 3.617188 -8.523438 3.3125 -7.492188 3.3125 -6.171875 C 3.3125 -4.828125 3.628906 -3.769531 4.265625 -3 C 4.898438 -2.226562 5.769531 -1.84375 6.875 -1.84375 C 8.019531 -1.84375 8.90625 -2.21875 9.53125 -2.96875 C 10.15625 -3.71875 10.46875 -4.785156 10.46875 -6.171875 Z M 10.46875 -6.171875 "/></g></g></g><g fill="#000000" fill-opacity="1"><g transform="translate(267.749118, 311.782688)"><g><path d="M 11.34375 0 L 11.34375 -7.40625 C 11.34375 -7.570312 11.34375 -7.738281 11.34375 -7.90625 C 11.34375 -8.070312 11.367188 -8.796875 11.421875 -10.078125 C 11.015625 -8.515625 10.710938 -7.425781 10.515625 -6.8125 L 8.3125 0 L 6.484375 0 L 4.28125 -6.8125 L 3.359375 -10.078125 C 3.429688 -8.734375 3.46875 -7.84375 3.46875 -7.40625 L 3.46875 0 L 1.1875 0 L 1.1875 -12.21875 L 4.609375 -12.21875 L 6.796875 -5.390625 L 6.984375 -4.734375 L 7.40625 -3.09375 L 7.953125 -5.046875 L 10.203125 -12.21875 L 13.609375 -12.21875 L 13.609375 0 Z M 11.34375 0 "/></g></g></g><g fill="#000000" fill-opacity="1"><g transform="translate(284.63024, 311.782688)"><g><path d="M 11.34375 0 L 11.34375 -7.40625 C 11.34375 -7.570312 11.34375 -7.738281 11.34375 -7.90625 C 11.34375 -8.070312 11.367188 -8.796875 11.421875 -10.078125 C 11.015625 -8.515625 10.710938 -7.425781 10.515625 -6.8125 L 8.3125 0 L 6.484375 0 L 4.28125 -6.8125 L 3.359375 -10.078125 C 3.429688 -8.734375 3.46875 -7.84375 3.46875 -7.40625 L 3.46875 0 L 1.1875 0 L 1.1875 -12.21875 L 4.609375 -12.21875 L 6.796875 -5.390625 L 6.984375 -4.734375 L 7.40625 -3.09375 L 7.953125 -5.046875 L 10.203125 -12.21875 L 13.609375 -12.21875 L 13.609375 0 Z M 11.34375 0 "/></g></g></g><g fill="#000000" fill-opacity="1"><g transform="translate(301.511362, 311.782688)"><g><path d="M 13.078125 -6.171875 C 13.078125 -4.898438 12.820312 -3.78125 12.3125 -2.8125 C 11.8125 -1.84375 11.09375 -1.101562 10.15625 -0.59375 C 9.21875 -0.0820312 8.125 0.171875 6.875 0.171875 C 4.957031 0.171875 3.453125 -0.390625 2.359375 -1.515625 C 1.273438 -2.648438 0.734375 -4.203125 0.734375 -6.171875 C 0.734375 -8.128906 1.273438 -9.65625 2.359375 -10.75 C 3.441406 -11.851562 4.953125 -12.40625 6.890625 -12.40625 C 8.828125 -12.40625 10.34375 -11.847656 11.4375 -10.734375 C 12.53125 -9.628906 13.078125 -8.109375 13.078125 -6.171875 Z M 10.46875 -6.171875 C 10.46875 -7.484375 10.15625 -8.515625 9.53125 -9.265625 C 8.90625 -10.015625 8.023438 -10.390625 6.890625 -10.390625 C 5.742188 -10.390625 4.859375 -10.015625 4.234375 -9.265625 C 3.617188 -8.523438 3.3125 -7.492188 3.3125 -6.171875 C 3.3125 -4.828125 3.628906 -3.769531 4.265625 -3 C 4.898438 -2.226562 5.769531 -1.84375 6.875 -1.84375 C 8.019531 -1.84375 8.90625 -2.21875 9.53125 -2.96875 C 10.15625 -3.71875 10.46875 -4.785156 10.46875 -6.171875 Z M 10.46875 -6.171875 "/></g></g></g><g fill="#000000" fill-opacity="1"><g transform="translate(317.412077, 311.782688)"><g><path d="M 9.578125 0 L 6.75 -4.640625 L 3.75 -4.640625 L 3.75 0 L 1.1875 0 L 1.1875 -12.21875 L 7.296875 -12.21875 C 8.753906 -12.21875 9.878906 -11.90625 10.671875 -11.28125 C 11.460938 -10.65625 11.859375 -9.753906 11.859375 -8.578125 C 11.859375 -7.722656 11.613281 -6.984375 11.125 -6.359375 C 10.644531 -5.742188 9.988281 -5.335938 9.15625 -5.140625 L 12.46875 0 Z M 9.28125 -8.46875 C 9.28125 -9.644531 8.53125 -10.234375 7.03125 -10.234375 L 3.75 -10.234375 L 3.75 -6.625 L 7.09375 -6.625 C 7.8125 -6.625 8.351562 -6.785156 8.71875 -7.109375 C 9.09375 -7.429688 9.28125 -7.882812 9.28125 -8.46875 Z M 9.28125 -8.46875 "/></g></g></g><g fill="#000000" fill-opacity="1"><g transform="translate(332.323702, 311.782688)"><g><path d="M 13.078125 -6.171875 C 13.078125 -4.898438 12.820312 -3.78125 12.3125 -2.8125 C 11.8125 -1.84375 11.09375 -1.101562 10.15625 -0.59375 C 9.21875 -0.0820312 8.125 0.171875 6.875 0.171875 C 4.957031 0.171875 3.453125 -0.390625 2.359375 -1.515625 C 1.273438 -2.648438 0.734375 -4.203125 0.734375 -6.171875 C 0.734375 -8.128906 1.273438 -9.65625 2.359375 -10.75 C 3.441406 -11.851562 4.953125 -12.40625 6.890625 -12.40625 C 8.828125 -12.40625 10.34375 -11.847656 11.4375 -10.734375 C 12.53125 -9.628906 13.078125 -8.109375 13.078125 -6.171875 Z M 10.46875 -6.171875 C 10.46875 -7.484375 10.15625 -8.515625 9.53125 -9.265625 C 8.90625 -10.015625 8.023438 -10.390625 6.890625 -10.390625 C 5.742188 -10.390625 4.859375 -10.015625 4.234375 -9.265625 C 3.617188 -8.523438 3.3125 -7.492188 3.3125 -6.171875 C 3.3125 -4.828125 3.628906 -3.769531 4.265625 -3 C 4.898438 -2.226562 5.769531 -1.84375 6.875 -1.84375 C 8.019531 -1.84375 8.90625 -2.21875 9.53125 -2.96875 C 10.15625 -3.71875 10.46875 -4.785156 10.46875 -6.171875 Z M 10.46875 -6.171875 "/></g></g></g><g fill="#000000" fill-opacity="1"><g transform="translate(348.224417, 311.782688)"><g><path d="M 13.59375 0 L 10.5625 0 L 8.90625 -7.0625 C 8.695312 -7.894531 8.523438 -8.769531 8.390625 -9.6875 C 8.253906 -8.925781 8.140625 -8.347656 8.046875 -7.953125 C 7.960938 -7.554688 7.347656 -4.90625 6.203125 0 L 3.171875 0 L 0.015625 -12.21875 L 2.609375 -12.21875 L 4.375 -4.328125 L 4.78125 -2.421875 C 4.9375 -3.222656 5.09375 -3.988281 5.25 -4.71875 C 5.40625 -5.457031 5.984375 -7.957031 6.984375 -12.21875 L 9.84375 -12.21875 L 11.390625 -5.71875 C 11.515625 -5.226562 11.71875 -4.128906 12 -2.421875 L 12.21875 -3.421875 L 12.6875 -5.421875 L 14.15625 -12.21875 L 16.75 -12.21875 Z M 13.59375 0 "/></g></g></g></svg>